<?xml version="1.0" encoding="utf-8"?>
<!-- Svg Vector Icons : http://www.onlinewebfonts.com/icon -->
<!DOCTYPE svg PUBLIC "-//W3C//DTD SVG 1.1//EN" "http://www.w3.org/Graphics/SVG/1.1/DTD/svg11.dtd">
<svg version="1.1" xmlns="http://www.w3.org/2000/svg" xmlns:xlink="http://www.w3.org/1999/xlink" x="0px" y="0px" viewBox="0 0 1000 1000" enable-background="new 0 0 1000 1000" xml:space="preserve">
<metadata> Svg Vector Icons : http://www.onlinewebfonts.com/icon </metadata>
<g><path d="M500,405.9L123.6,29.5c-26-26-68-25.9-94,0.1c-25.9,25.9-26,68.1-0.1,94L405.9,500L29.5,876.4c-26,26-25.9,68,0.1,94c25.9,25.9,68.1,26,94,0.1L500,594.1l376.4,376.4c26,26,68,25.9,94-0.1c25.9-25.9,26-68.1,0.1-94L594.1,500l376.4-376.4c26-26,25.9-68-0.1-94c-25.9-25.9-68.1-26-94-0.1L500,405.9z"/></g>
</svg>